<svg xmlns:xlink="http://www.w3.org/1999/xlink" xmlns="http://www.w3.org/2000/svg" viewBox="0 0 115.48 38.94" width="115.48"  height="38.94" ><defs><style>.cls-1{fill:#659338;}.cls-2{fill:#56637e;}</style></defs><title>noref-icon</title><g id="Layer_2" data-name="Layer 2"><g id="Layer_1-2" data-name="Layer 1"><path class="cls-1" d="M62,10.31h2.78V24.54H62.33L56.7,15.81v8.73H53.92V10.31H56.4L62,19Zm14.66,1.38c1.42,1.42,1.46,3,1.46,5.73s0,4.31-1.46,5.73a5.58,5.58,0,0,1-7.61,0c-1.42-1.42-1.44-3-1.44-5.73s0-4.31,1.44-5.73a5.58,5.58,0,0,1,7.61,0Zm-1.32,5.73c0-2.72-.18-3.4-.7-4a2.31,2.31,0,0,0-1.78-.76,2.38,2.38,0,0,0-1.8.76c-.52.6-.68,1.28-.68,4s.16,3.38.68,4a2.4,2.4,0,0,0,1.8.78,2.32,2.32,0,0,0,1.78-.78C75.19,20.8,75.37,20.14,75.37,17.43Zm13.2,1,3.18,6.13H88.53l-2.78-5.67h-2v5.67H81V10.31h5.57a4.3,4.3,0,0,1,4.61,4.35A3.83,3.83,0,0,1,88.57,18.4Zm-.18-3.74a1.85,1.85,0,0,0-2-1.88H83.75v3.76h2.62A1.85,1.85,0,0,0,88.39,14.67ZM94,24.54h9.37V22.06H96.81V18.6h5.61V16.13H96.81V12.79h6.59V10.31H94Zm21.45-11.74V10.31h-9.37V24.54h2.78V18.76h5.61V16.29h-5.61v-3.5Z"/><path class="cls-2" d="M28.48,29.34a2.7,2.7,0,0,1-2.7-2.7V8.21a2.7,2.7,0,0,1,2.7-2.7H38.94V2.7A2.7,2.7,0,0,0,36.25,0H2.7A2.7,2.7,0,0,0,0,2.7V36.25a2.69,2.69,0,0,0,2.7,2.69H36.25a2.7,2.7,0,0,0,2.7-2.69V29.34Z"/><rect class="cls-1" x="30.65" y="10.33" width="14.23" height="14.22" rx="2.7" ry="2.7"/></g></g></svg>