<svg xmlns="http://www.w3.org/2000/svg" viewBox="0 0 296.99 41.51"><defs><style>.cls-1{fill:#659438;}.cls-2{fill:#56637f;}</style></defs><title>noref-logo_text</title><g id="Layer_2" data-name="Layer 2"><g id="Layer_1-2" data-name="Layer 1"><path class="cls-1" d="M62.33,24.53,56.7,15.81v8.73H53.92V10.31H56.4L62,19V10.31h2.78V24.53Z"/><path class="cls-1" d="M76.69,23.16a5.58,5.58,0,0,1-7.61,0c-1.42-1.42-1.44-3-1.44-5.73s0-4.31,1.44-5.73a5.58,5.58,0,0,1,7.61,0c1.42,1.42,1.46,3,1.46,5.73S78.1,21.74,76.69,23.16Zm-2-9.73a2.31,2.31,0,0,0-1.78-.76,2.38,2.38,0,0,0-1.8.76c-.52.6-.68,1.28-.68,4s.16,3.38.68,4a2.4,2.4,0,0,0,1.8.78,2.32,2.32,0,0,0,1.78-.78c.52-.6.7-1.26.7-4S75.19,14,74.67,13.43Z"/><path class="cls-1" d="M88.53,24.53l-2.78-5.67h-2v5.67H81V10.31h5.57a4.3,4.3,0,0,1,4.61,4.35,3.83,3.83,0,0,1-2.6,3.74l3.18,6.13ZM86.37,12.79H83.75v3.76h2.62a1.88,1.88,0,1,0,0-3.76Z"/><path class="cls-1" d="M94,24.53V10.31h9.37v2.48H96.81v3.34h5.61V18.6H96.81v3.46h6.59v2.48Z"/><path class="cls-1" d="M108.89,12.79v3.5h5.61v2.48h-5.61v5.77h-2.78V10.31h9.37v2.48Z"/><path class="cls-2" d="M59.53,38.89l-3.75-5.81v5.81H53.93V29.41h1.65l3.75,5.8v-5.8h1.85v9.47Z"/><path class="cls-2" d="M67.72,38.11a2.9,2.9,0,0,1-2.16.85,2.86,2.86,0,0,1-2.14-.85,3.56,3.56,0,0,1-.79-2.7,3.53,3.53,0,0,1,.79-2.69,3.14,3.14,0,0,1,4.3,0,3.53,3.53,0,0,1,.79,2.69A3.49,3.49,0,0,1,67.72,38.11Zm-1.34-4.38a1.1,1.1,0,0,0-.81-.31,1.08,1.08,0,0,0-.8.31,2.34,2.34,0,0,0-.4,1.68,2.36,2.36,0,0,0,.4,1.69,1.08,1.08,0,0,0,.8.31,1.09,1.09,0,0,0,.81-.31,2.36,2.36,0,0,0,.4-1.69A2.34,2.34,0,0,0,66.38,33.74Z"/><path class="cls-2" d="M73.59,33.84a1.16,1.16,0,0,0-2,.87v4.18H69.83V32h1.69v.67a2.35,2.35,0,0,1,1.74-.75,2.09,2.09,0,0,1,1.64.65Z"/><path class="cls-2" d="M82.84,38.89H81.42L80,34.53l-1.45,4.35H77.09L75,32H76.8l1.12,4.28L79.33,32h1.26L82,36.24,83.13,32H85Z"/><path class="cls-2" d="M87.28,36a1.42,1.42,0,0,0,1.52,1.54,2,2,0,0,0,1.57-.65l1.05,1A3.26,3.26,0,0,1,88.78,39c-1.64,0-3.21-.75-3.21-3.55,0-2.26,1.22-3.54,3-3.54s3,1.38,3,3.35V36ZM89.75,34a1.29,1.29,0,0,0-2.31,0,1.7,1.7,0,0,0-.16.75h2.63A1.69,1.69,0,0,0,89.75,34Z"/><path class="cls-2" d="M95.61,41.51a3.24,3.24,0,0,1-2.51-.9l1.08-1.09a1.77,1.77,0,0,0,1.36.53,1.31,1.31,0,0,0,1.4-1.44V37.9a2,2,0,0,1-1.65.69A2.31,2.31,0,0,1,93.63,38c-.65-.65-.71-1.54-.71-2.75s.05-2.09.71-2.74a2.34,2.34,0,0,1,1.66-.61,2,2,0,0,1,1.69.73V32h1.68v6.68A2.81,2.81,0,0,1,95.61,41.51Zm.17-8.08c-1,0-1.13.88-1.13,1.8S94.76,37,95.78,37s1.14-.89,1.14-1.81S96.81,33.43,95.78,33.43Z"/><path class="cls-2" d="M100.58,30.77V29.36h1.77v1.41Zm0,8.12V32.15h1.73v6.73Z"/><path class="cls-2" d="M107.82,38.89v-.6a2.11,2.11,0,0,1-1.7.67,2.4,2.4,0,0,1-1.77-.61,2.22,2.22,0,0,1-.57-1.56c0-1.1.76-2,2.4-2h1.61v-.35c0-.76-.37-1.09-1.29-1.09a1.53,1.53,0,0,0-1.33.6l-1.09-1.08a2.9,2.9,0,0,1,2.49-1c2,0,3,.83,3,2.45v4.56Zm0-2.93h-1.32c-.69,0-1,.28-1,.8s.33.79,1.05.79a1.32,1.32,0,0,0,1-.33,1.07,1.07,0,0,0,.27-.88Z"/><path class="cls-2" d="M115.4,38.89V34.69a1.16,1.16,0,1,0-2.3,0v4.19h-1.73V32h1.69v.64a2.37,2.37,0,0,1,1.73-.72,2.25,2.25,0,0,1,1.64.61,2.57,2.57,0,0,1,.71,2v4.43Z"/><path class="cls-2" d="M125.07,39a3.43,3.43,0,0,1-2.54-1c-.94-.94-1-2-1-3.82s0-2.87,1-3.82a3.43,3.43,0,0,1,2.54-1,3.34,3.34,0,0,1,3.47,3h-1.89A1.55,1.55,0,0,0,125.07,31a1.53,1.53,0,0,0-1.18.49c-.35.4-.47.86-.47,2.67s.12,2.28.47,2.67a1.53,1.53,0,0,0,1.18.49,1.57,1.57,0,0,0,1.6-1.34h1.88A3.34,3.34,0,0,1,125.07,39Z"/><path class="cls-2" d="M131,36a1.42,1.42,0,0,0,1.52,1.54,2,2,0,0,0,1.57-.65l1.05,1A3.26,3.26,0,0,1,132.54,39c-1.64,0-3.21-.75-3.21-3.55,0-2.26,1.22-3.54,3-3.54s3,1.38,3,3.35V36ZM133.51,34a1.29,1.29,0,0,0-2.31,0,1.69,1.69,0,0,0-.16.75h2.63A1.7,1.7,0,0,0,133.51,34Z"/><path class="cls-2" d="M141,38.89V34.69a1.16,1.16,0,1,0-2.3,0v4.19H137V32h1.69v.64a2.37,2.37,0,0,1,1.73-.72,2.25,2.25,0,0,1,1.64.61,2.57,2.57,0,0,1,.71,2v4.43Z"/><path class="cls-2" d="M146.77,38.89a1.88,1.88,0,0,1-2-2V33.47H144V32.15h.73v-2h1.73v2h1.22v1.32h-1.22V36.8c0,.4.19.63.6.63h.63v1.46Z"/><path class="cls-2" d="M153,33.84a1.16,1.16,0,0,0-2,.87v4.18h-1.73V32H151v.67a2.35,2.35,0,0,1,1.74-.75,2.09,2.09,0,0,1,1.64.65Z"/><path class="cls-2" d="M156.3,36a1.42,1.42,0,0,0,1.52,1.54,2,2,0,0,0,1.57-.65l1.05,1A3.26,3.26,0,0,1,157.8,39c-1.64,0-3.21-.75-3.21-3.55,0-2.26,1.22-3.54,3-3.54s3,1.38,3,3.35V36ZM158.77,34a1.29,1.29,0,0,0-2.31,0,1.69,1.69,0,0,0-.16.75h2.63A1.7,1.7,0,0,0,158.77,34Z"/><path class="cls-2" d="M167.27,33.47v5.42h-1.73V33.47h-.72V32.15h.72v-.87a1.89,1.89,0,0,1,2-2h1v1.46h-.68c-.41,0-.6.23-.6.63v.76h1.28v1.32Z"/><path class="cls-2" d="M174.47,38.11a2.9,2.9,0,0,1-2.16.85,2.86,2.86,0,0,1-2.14-.85,3.56,3.56,0,0,1-.79-2.7,3.53,3.53,0,0,1,.79-2.69,3.14,3.14,0,0,1,4.3,0,3.53,3.53,0,0,1,.79,2.69A3.49,3.49,0,0,1,174.47,38.11Zm-1.34-4.38a1.1,1.1,0,0,0-.81-.31,1.08,1.08,0,0,0-.8.31,2.34,2.34,0,0,0-.4,1.68,2.36,2.36,0,0,0,.4,1.69,1.08,1.08,0,0,0,.8.31,1.09,1.09,0,0,0,.81-.31,2.36,2.36,0,0,0,.4-1.69A2.34,2.34,0,0,0,173.12,33.74Z"/><path class="cls-2" d="M180.34,33.84a1.16,1.16,0,0,0-2,.87v4.18h-1.73V32h1.69v.67a2.35,2.35,0,0,1,1.74-.75,2.09,2.09,0,0,1,1.64.65Z"/><path class="cls-2" d="M188.7,39a3.43,3.43,0,0,1-2.54-1c-.94-.94-1-2-1-3.82s0-2.87,1-3.82a3.43,3.43,0,0,1,2.54-1,3.34,3.34,0,0,1,3.47,3h-1.89A1.55,1.55,0,0,0,188.7,31a1.53,1.53,0,0,0-1.18.49c-.35.4-.47.86-.47,2.67s.12,2.28.47,2.67a1.53,1.53,0,0,0,1.18.49,1.57,1.57,0,0,0,1.6-1.34h1.88A3.34,3.34,0,0,1,188.7,39Z"/><path class="cls-2" d="M198.1,38.11a2.9,2.9,0,0,1-2.16.85,2.86,2.86,0,0,1-2.14-.85,3.56,3.56,0,0,1-.79-2.7,3.53,3.53,0,0,1,.79-2.69,3.14,3.14,0,0,1,4.3,0,3.53,3.53,0,0,1,.79,2.69A3.49,3.49,0,0,1,198.1,38.11Zm-1.34-4.38a1.1,1.1,0,0,0-.81-.31,1.08,1.08,0,0,0-.8.31,2.34,2.34,0,0,0-.4,1.68,2.36,2.36,0,0,0,.4,1.69,1.08,1.08,0,0,0,.8.31,1.09,1.09,0,0,0,.81-.31,2.36,2.36,0,0,0,.4-1.69A2.34,2.34,0,0,0,196.75,33.74Z"/><path class="cls-2" d="M204.23,38.89V34.69a1.16,1.16,0,1,0-2.3,0v4.19H200.2V32h1.69v.64a2.37,2.37,0,0,1,1.73-.72,2.25,2.25,0,0,1,1.64.61,2.57,2.57,0,0,1,.71,2v4.43Z"/><path class="cls-2" d="M209.77,33.47v5.42H208V33.47h-.72V32.15H208v-.87a1.89,1.89,0,0,1,2-2h1v1.46h-.68c-.41,0-.6.23-.6.63v.76H211v1.32Z"/><path class="cls-2" d="M214.34,38.89a1.88,1.88,0,0,1-2-2V29.41H214V36.8c0,.41.17.63.61.63h.67v1.46Z"/><path class="cls-2" d="M216.68,30.77V29.36h1.77v1.41Zm0,8.12V32.15h1.73v6.73Z"/><path class="cls-2" d="M223.12,39c-1.38,0-3.1-.75-3.1-3.55s1.72-3.54,3.1-3.54a3,3,0,0,1,2.29.93L224.24,34a1.4,1.4,0,0,0-1.12-.55,1.2,1.2,0,0,0-1,.45,2.35,2.35,0,0,0-.39,1.53,2.39,2.39,0,0,0,.39,1.54,1.2,1.2,0,0,0,1,.45,1.4,1.4,0,0,0,1.12-.55L225.41,38A3,3,0,0,1,223.12,39Z"/><path class="cls-2" d="M228.93,38.89a1.88,1.88,0,0,1-2-2V33.47h-.73V32.15h.73v-2h1.73v2h1.22v1.32h-1.22V36.8c0,.4.19.63.6.63h.63v1.46Z"/><path class="cls-2" d="M239.69,38.89l-1.85-3.78h-1.33v3.78h-1.85V29.41h3.71a2.86,2.86,0,0,1,3.07,2.9,2.55,2.55,0,0,1-1.73,2.49l2.12,4.08Zm-1.44-7.82h-1.74v2.5h1.74a1.25,1.25,0,1,0,0-2.5Z"/><path class="cls-2" d="M244.2,36a1.42,1.42,0,0,0,1.52,1.54,2,2,0,0,0,1.57-.65l1.05,1A3.26,3.26,0,0,1,245.7,39c-1.64,0-3.21-.75-3.21-3.55,0-2.26,1.22-3.54,3-3.54s3,1.38,3,3.35V36ZM246.67,34a1.29,1.29,0,0,0-2.31,0,1.69,1.69,0,0,0-.16.75h2.63A1.7,1.7,0,0,0,246.67,34Z"/><path class="cls-2" d="M252.41,39a3.78,3.78,0,0,1-3-1l1.13-1.13a2.5,2.5,0,0,0,1.85.65c.6,0,1.22-.2,1.22-.72,0-.35-.17-.59-.73-.64L251.81,36c-1.22-.12-2-.67-2-1.94,0-1.45,1.26-2.21,2.67-2.21a3.72,3.72,0,0,1,2.65.81l-1.06,1.08a2.39,2.39,0,0,0-1.61-.47c-.69,0-1,.32-1,.67s.2.55.72.6l1.09.11c1.37.13,2.06.85,2.06,2C255.35,38.23,254,39,252.41,39Z"/><path class="cls-2" d="M261.59,38.11a2.9,2.9,0,0,1-2.16.85,2.86,2.86,0,0,1-2.14-.85,3.56,3.56,0,0,1-.79-2.7,3.53,3.53,0,0,1,.79-2.69,3.14,3.14,0,0,1,4.3,0,3.53,3.53,0,0,1,.79,2.69A3.49,3.49,0,0,1,261.59,38.11Zm-1.34-4.38a1.1,1.1,0,0,0-.81-.31,1.08,1.08,0,0,0-.8.31,2.34,2.34,0,0,0-.4,1.68,2.36,2.36,0,0,0,.4,1.69,1.08,1.08,0,0,0,.8.31,1.09,1.09,0,0,0,.81-.31,2.36,2.36,0,0,0,.4-1.69A2.34,2.34,0,0,0,260.25,33.74Z"/><path class="cls-2" d="M265.65,38.89a1.88,1.88,0,0,1-2-2V29.41h1.73V36.8c0,.41.17.63.61.63h.67v1.46Z"/><path class="cls-2" d="M272,38.89v-.64a2.37,2.37,0,0,1-1.73.72,2.25,2.25,0,0,1-1.64-.61,2.57,2.57,0,0,1-.71-2V32h1.73v4.19a1.16,1.16,0,1,0,2.3,0V32h1.73v6.93Z"/><path class="cls-2" d="M277.82,38.89a1.88,1.88,0,0,1-2-2V33.47h-.73V32.15h.73v-2h1.73v2h1.22v1.32h-1.22V36.8c0,.4.19.63.6.63h.63v1.46Z"/><path class="cls-2" d="M280.31,30.77V29.36h1.77v1.41Zm0,8.12V32.15h1.73v6.73Z"/><path class="cls-2" d="M288.79,38.11a2.9,2.9,0,0,1-2.16.85,2.86,2.86,0,0,1-2.14-.85,3.56,3.56,0,0,1-.79-2.7,3.53,3.53,0,0,1,.79-2.69,3.14,3.14,0,0,1,4.3,0,3.53,3.53,0,0,1,.79,2.69A3.49,3.49,0,0,1,288.79,38.11Zm-1.34-4.38a1.1,1.1,0,0,0-.81-.31,1.08,1.08,0,0,0-.8.31,2.34,2.34,0,0,0-.4,1.68,2.36,2.36,0,0,0,.4,1.69,1.08,1.08,0,0,0,.8.31,1.09,1.09,0,0,0,.81-.31,2.36,2.36,0,0,0,.4-1.69A2.34,2.34,0,0,0,287.44,33.74Z"/><path class="cls-2" d="M295.26,38.89V34.69a1.16,1.16,0,1,0-2.3,0v4.19h-1.73V32h1.69v.64a2.37,2.37,0,0,1,1.73-.72,2.25,2.25,0,0,1,1.64.61,2.57,2.57,0,0,1,.71,2v4.43Z"/><path class="cls-1" d="M33.34,10.32h8.84a2.7,2.7,0,0,1,2.7,2.7v8.83a2.7,2.7,0,0,1-2.7,2.7H33.34a2.7,2.7,0,0,1-2.7-2.7V13A2.69,2.69,0,0,1,33.34,10.32Z"/><path class="cls-2" d="M28.48,29.34a2.7,2.7,0,0,1-2.7-2.7V8.21a2.7,2.7,0,0,1,2.7-2.7H38.94V2.8A2.81,2.81,0,0,0,36.14,0H2.8A2.81,2.81,0,0,0,0,2.8V36.14a2.81,2.81,0,0,0,2.8,2.8H36.14a2.81,2.81,0,0,0,2.8-2.8v-6.8Z"/></g></g></svg>